<?xml version="1.0" encoding="utf-8"?>
<!-- Generator: Adobe Illustrator 28.0.0, SVG Export Plug-In . SVG Version: 6.00 Build 0)  -->
<svg version="1.1" id="Capa_1" xmlns="http://www.w3.org/2000/svg" xmlns:xlink="http://www.w3.org/1999/xlink" x="0px" y="0px"
	 viewBox="0 0 720 722.5" style="enable-background:new 0 0 720 722.5;" xml:space="preserve">
<style type="text/css">
	.st0{fill:#F2F2F2;}
	.st1{fill:#E6E6E6;}
	.st2{fill:#FFFFFF;}
	.st3{fill:#CCCCCC;}
	.st4{fill:#AAAAAA;}
	.st5{fill:#FFB9B9;}
	.st6{fill:#090814;}
	.st7{fill:#8E8E8E;}
</style>
<g id="Group_64" transform="translate(-600.001 -166)">
	<g id="Group_63" transform="translate(39.127 -21.613)">
		<path id="Path_1-824" class="st0" d="M692.6,830.9l-4.4-17.2c-7.8-3.3-15.7-6.1-23.8-8.5l-0.6,8l-2.2-8.8
			c-10-2.9-16.8-4.1-16.8-4.1s9.2,35,28.5,61.7l22.5,4l-17.5,2.5c2.4,2.9,5,5.7,7.8,8.3c28.1,26.1,59.3,38,69.8,26.7
			s-3.7-41.6-31.8-67.7c-8.7-8.1-19.6-14.6-30.6-19.7L692.6,830.9z"/>
		<path id="Path_2-825" class="st0" d="M734.2,812.1l5.2-17c-4.9-6.8-10.3-13.4-15.9-19.6l-4.6,6.6l2.6-8.7
			c-7.1-7.6-12.3-12.2-12.3-12.2s-10.2,34.7-7.5,67.6l17.2,15l-16.3-6.9c0.6,3.8,1.4,7.5,2.4,11.1c10.6,36.8,31.1,63.2,46,59
			s18.3-37.6,7.7-74.4c-3.3-11.4-9.3-22.6-16-32.6L734.2,812.1z"/>
	</g>
	<g id="Group_62" transform="translate(44.037 -0.462)">
		<path id="Path_22-826" class="st1" d="M1095,337.6h-4V229.2c0-34.6-28.1-62.7-62.7-62.7H798.7c-34.6,0-62.7,28.1-62.7,62.7l0,0
			v594.5c0,34.6,28.1,62.7,62.7,62.7h229.6c34.6,0,62.7-28.1,62.7-62.7v-409h4L1095,337.6z"/>
		<path id="Path_23-827" class="st2" d="M1030.8,182.8h-30c4.6,11.4-0.8,24.4-12.2,29c-2.7,1.1-5.5,1.6-8.4,1.6H848.7
			c-12.3,0-22.3-10-22.3-22.3c0-2.9,0.6-5.7,1.6-8.4h-28c-25.9,0-46.8,21-46.8,46.8v593.7c0,25.9,21,46.8,46.8,46.8l0,0h230.7
			c25.9,0,46.8-21,46.8-46.8c0,0,0,0,0,0l0,0V229.6C1077.7,203.7,1056.7,182.8,1030.8,182.8L1030.8,182.8z"/>
		<path id="Path_6-828" class="st3" d="M886.1,419.3c0-8.4,4.5-16.3,11.8-20.5c-11.3-6.5-25.8-2.7-32.3,8.6s-2.7,25.8,8.6,32.3
			c7.3,4.2,16.3,4.2,23.6,0C890.6,435.5,886.1,427.7,886.1,419.3L886.1,419.3z"/>
		<path id="Path_7-829" class="st3" d="M915.8,419.3c0-8.4,4.5-16.3,11.8-20.5c-11.3-6.5-25.8-2.7-32.3,8.6s-2.7,25.8,8.6,32.3
			c7.3,4.2,16.3,4.2,23.6,0C920.3,435.5,915.8,427.7,915.8,419.3L915.8,419.3z"/>
		<circle id="Ellipse_1" cx="944.8" cy="419.3" r="23.6"/>
		<path id="Path_8-830" class="st3" d="M984.3,493.1H846.6c-2.7,0-4.9-2.2-4.9-4.9V350.4c0-2.7,2.2-4.9,4.9-4.9h137.8
			c2.7,0,4.9,2.2,4.9,4.9v137.8C989.3,490.9,987.1,493.1,984.3,493.1L984.3,493.1z M846.6,347.4c-1.6,0-3,1.3-3,3v137.8
			c0,1.6,1.3,3,3,3h137.8c1.6,0,3-1.3,3-3V350.4c0-1.6-1.3-3-3-3L846.6,347.4z"/>
		<rect id="Rectangle_1" x="803.8" y="598.7" class="st3" width="211.3" height="2"/>
		<circle id="Ellipse_2" cx="810.9" cy="579.5" r="6.5"/>
		<rect id="Rectangle_2" x="803.8" y="665.4" class="st3" width="211.3" height="2"/>
		<circle id="Ellipse_3" cx="810.5" cy="646.4" r="6.7"/>
		<path id="Path_977-831" class="st4" d="M1011.2,741.4h-66.8c-2.4,0-4.3-1.9-4.3-4.3v-23.4c0-2.4,1.9-4.3,4.3-4.3h66.8
			c2.4,0,4.3,1.9,4.3,4.3V737C1015.6,739.4,1013.6,741.4,1011.2,741.4z"/>
		<circle id="Ellipse_7" cx="832.2" cy="579.5" r="6.5"/>
		<circle id="Ellipse_8" cx="853.6" cy="579.5" r="6.5"/>
		<circle id="Ellipse_9" cx="832.2" cy="646.4" r="6.7"/>
		<circle id="Ellipse_10" cx="853.6" cy="644.9" r="6.5"/>
	</g>
	<path id="Path_88-832" class="st1" d="M1317.2,888.5H602.8c-1.5,0-2.8-0.5-2.8-1.2s1.2-1.2,2.8-1.2h714.5c1.5,0,2.8,0.5,2.8,1.2
		S1318.8,888.5,1317.2,888.5z"/>
	<g id="Group_61" transform="translate(-21145.078 -2078.104)">
		<path id="Path_92-833" class="st5" d="M22370.8,2697l-16.8,33.3l-50.2,22.8c-5.4,9.1-22.4,9.8-23.6,3.9
			c-1.4-6.6,20.7-17.2,20.7-17.2l42-28.4l3.7-24.5L22370.8,2697z"/>
		<path id="Path_93-834" class="st5" d="M22368.8,2920.2l3.1,24.8l-18,1.2l-1.9-26L22368.8,2920.2z"/>
		<path id="Path_94-835" class="st6" d="M22366.4,2941.2c1.6-1.7,3.1-3.5,4.4-5.4c2.6-3.6,4.9,14.7,4.9,14.7s2.5,7.4,1.9,11.2
			c-0.6,3.7-14.9,3.7-17.3,3.1c-2.5-0.6-14.9,0-14.9,0h-18.6c-16.1-7.4,0-12.4,0-12.4c5-0.6,21.7-16.1,21.7-16.1l3.7-6.8
			c2.5-0.6,5,8.7,5,8.7L22366.4,2941.2z"/>
		<path id="Path_95-836" class="st5" d="M22415.3,2920.5l3.1,24.8l-18,1.2l-1.9-26H22415.3z"/>
		<path id="Path_96-837" class="st6" d="M22412.8,2941.6c1.6-1.7,3.1-3.5,4.4-5.4c2.6-3.6,4.9,14.7,4.9,14.7s2.5,6.8,1.9,10.5
			s-14.9,3.7-17.3,3.1c-2.5-0.6-14.9,0.6-14.9,0.6h-18.6c-16.1-7.4,0-12.4,0-12.4c5-0.6,21.7-16.1,21.7-16.1l3.7-6.8
			c2.5-0.6,5,8.7,5,8.7L22412.8,2941.6z"/>
		<path id="Path_97-838" class="st6" d="M22394.9,2760.6c2.5,3.1,1.2,13.6,1.2,13.6s4.3,34.1,2.5,37.2c-1.9,3.1,1.2,5.6,3.1,9.9
			c1.9,4.3,3.7,14.9,3.7,14.9c10.5,8.7,9.9,48.3,9.9,48.3l3.7,35.3c-1.2,3.7-18.6,4.3-21.1,3.7s-9.9-56.4-9.9-56.4l-16.7-31.6
			c0,0,1.2,84.3,1.2,88s-16.7,1.9-20.4,1.9c-3.7,0-3.7-62-3.7-62l-3.7-16.1l-19.8-73.7v-8.7l3.1-4.3
			C22328,2760.6,22392.4,2757.5,22394.9,2760.6z"/>
		<circle id="Ellipse_11" class="st5" cx="22367.6" cy="2600.8" r="19.2"/>
		<path id="Path_98-839" class="st5" d="M22358,2609.8c3.9,8.7,1.6,20.8-6.2,34.1l31.6-14.9l-5-4.3l1.2-12.4L22358,2609.8z"/>
		<path id="Path_99-840" class="st7" d="M22358,2629.6c-4.1,2.5-6.6,7-8,11.6c-2.6,8.5-4.2,17.3-4.7,26.2l-1.5,26.6l-18.6,70.6
			c16.1,13.6,25.4,10.5,47.1-0.6c21.7-11.2,24.2,3.7,24.2,3.7s1.9-0.6,0-2.5c-1.9-1.9,0,0,1.9-1.9c1.9-1.9,0,0-0.6-1.9
			c-0.6-1.9,0-0.6,0.6-1.2c0.6-0.6-2.5-6.2-2.5-6.2l5-46.5l6.2-65.7c-7.4-9.3-28.5-17.3-28.5-17.3l-19.2,13.6
			c-6.2,2.5-1.2-7.4-1.2-7.4V2629.6z"/>
		<path id="Path_100-841" class="st5" d="M22417.2,2681.3l2.5,37.2l-31.6,45.2c0,10.5-5.6,13-5.6,13c-2.1-3.4-4-6.9-5.6-10.5
			c-3.1-6.8,1.9-12.4,1.9-12.4l21.7-45.8l-9.3-22.9L22417.2,2681.3z"/>
		<path id="Path_101-842" class="st7" d="M22406.6,2642.3c10.5,3.7,12.4,44,12.4,44c-12.4-6.8-27.3,4.3-27.3,4.3s-3.1-10.5-6.8-24.2
			c-2.3-7.8-0.4-16.2,5-22.3C22389.9,2644.2,22396.1,2638.6,22406.6,2642.3z"/>
		<path id="Path_102-843" class="st6" d="M22385.3,2606.7c-2.4-2-5.8,1.6-5.8,1.6l-2-17.6c0,0-12.2,1.5-20.1-0.5c-7.8-2-9,7.1-9,7.1
			c-0.4-3.7-0.5-7.3-0.2-11c0.5-4.4,6.8-8.8,18.1-11.7s17.1,9.8,17.1,9.8C22391.2,2588.2,22387.7,2608.6,22385.3,2606.7z"/>
	</g>
</g>
</svg>
