<?xml version="1.0" encoding="utf-8"?>
<!-- Generator: Adobe Illustrator 28.0.0, SVG Export Plug-In . SVG Version: 6.00 Build 0)  -->
<svg version="1.1" id="Capa_1" xmlns="http://www.w3.org/2000/svg" xmlns:xlink="http://www.w3.org/1999/xlink" x="0px" y="0px"
	 viewBox="0 0 405.7 457.2" style="enable-background:new 0 0 405.7 457.2;" xml:space="preserve">
<style type="text/css">
	.st0{fill:#FFB6B6;}
	.st1{fill:#2F2E41;}
	.st2{fill:#8E8E8E;}
	.st3{fill:#CCCCCC;}
	.st4{fill:#3F3D56;}
	.st5{fill:#FFFFFF;}
	.st6{fill:#E6E6E6;}
</style>
<g>
	<path class="st0" d="M155.5,280c2.3,4.5,1.9,9.3-1,10.7c-2.8,1.5-7-1-9.3-5.4c-1-2-1.5-4-1.5-5.7l-9.5-19l9-4.3l8.4,19.2
		C153.2,276.5,154.5,278,155.5,280L155.5,280z"/>
	<g>
		<polygon class="st0" points="84.6,451.7 92.7,451.7 96.6,420.4 84.6,420.4 		"/>
		<path class="st1" d="M112.4,451.5L112.4,451.5c0.3,0.4,0.4,1.8,0.4,2.3l0,0c0,1.5-1.2,2.8-2.8,2.8H84.9c-1,0-1.9-0.8-1.9-1.9v-1
			c0,0-1.2-3.1,1.3-7c0,0,3.2,3,7.9-1.7l1.4-2.5l10.2,7.4l5.6,0.7C110.7,450.6,111.8,450.5,112.4,451.5z"/>
	</g>
	<g>
		<polygon class="st0" points="46.5,451.7 54.6,451.7 58.5,420.4 46.5,420.4 		"/>
		<path class="st1" d="M74.3,451.5L74.3,451.5c0.3,0.4,0.4,1.8,0.4,2.3l0,0c0,1.5-1.2,2.8-2.8,2.8H46.8c-1,0-1.9-0.8-1.9-1.9v-1
			c0,0-1.2-3.1,1.3-7c0,0,3.2,3,7.9-1.7l1.4-2.5l10.2,7.4l5.6,0.7C72.6,450.6,73.7,450.5,74.3,451.5z"/>
	</g>
	<polygon class="st1" points="35,266.8 31.6,287.7 42.2,355.4 44.9,437.2 59.2,437.2 66.6,360 65.8,309 82.9,437.9 97.8,437.9 
		99.3,276.3 	"/>
	<path class="st2" d="M52.9,158.4h26.9l23.3,13.7c-3.6-0.9-6.4,32.7-6.5,62.4c0,2-2,4.2-1.9,6.2c0,1.7,2,3,2,4.6
		c0,1.5,0.1,3,0.1,4.4c0,1.2-2.2,2.8-2.2,4c0.1,1.5,2.4,2.5,2.5,3.9c0.5,8.6,1.5,15.4,2.9,18.7c0,0-60.1,16.7-64.7-9.1
		c0,0,0.3-9.3,0.2-22.1c0-1.1-1-2.2-1-3.4c0-0.9,1-1.9,0.9-2.8c0-0.7-0.9-1.4-0.9-2.2c0-0.5,0.9-1,0.9-1.5
		c-0.4-24.4-2-55.2-7.7-63.1C27.8,172.1,52.9,158.4,52.9,158.4z"/>
	<path class="st2" d="M79.5,158.4c0,0,17.4,6.3,23,11.4c2.9,2.7,22.7,53.3,22.7,53.3l27.4,47.7l-14.2,5.4l-29.1-44l-12.9-28.9
		L79.5,158.4L79.5,158.4z"/>
	<path class="st0" d="M43.3,281.8c2.5,4.3,2.4,9.2-0.4,10.8c-2.8,1.6-7.1-0.6-9.6-4.9c-1.1-1.9-1.7-3.9-1.8-5.7L21,263.5l8.8-4.8
		l9.5,18.7C40.7,278.4,42.2,279.9,43.3,281.8L43.3,281.8z"/>
	<path class="st2" d="M49.1,182l-7.6-17.5c0,0-17.9,5.7-17.9,14.1c0,0-10.7,63.9-9.1,79.9l9.9,17.5l14.1-11l-8.7-20.2L49.1,182
		L49.1,182z"/>
	<polygon class="st1" points="33.4,295.6 42.4,277.8 52.9,292.3 43.4,301.4 	"/>
	<circle class="st0" cx="66.1" cy="135.9" r="17.4"/>
	<path class="st1" d="M79.6,116.5c-3-1-4.5-4.6-7.2-6.1c-3.1-1.7-6.7-2.8-10.1-1.8c-2.1,0.6-3.9,1.9-5.9,2.5
		c-0.4,0.1-0.7,0.2-1.1,0.2c-2.2,0.2-4.1,1.5-5.3,3.5l0,0.1c-0.7,1.1-1.6,2-2.4,3c-3,3.6-4.6,8.4-4.6,13.1c0,5.1,2,10.1,5.4,13.9
		l0.9-0.4c2.1,1.8,4.2,3.6,6.3,5.4c-1.1-4.1-2.3-8.4-1.7-12.6c0.6-4.2,3.5-8.5,7.6-9.3c1.6-0.3,3.3-0.1,4.8-0.6
		c1.5-0.5,3-2.1,2.4-3.6c1,2.5,4.5,2.4,7,3.5c5.5,2.5,3.5-1.4,8.2,2.3C85.5,120.7,91.7,120.3,79.6,116.5L79.6,116.5z"/>
</g>
<path class="st3" d="M0,456c0,0.7,0.5,1.2,1.2,1.2h403.3c0.7,0,1.2-0.5,1.2-1.2c0-0.7-0.5-1.2-1.2-1.2H1.2C0.5,454.8,0,455.3,0,456z
	"/>
<path class="st4" d="M351.7,457.2H175.3c-21.5,0-39-17.5-39-39V39c0-21.5,17.5-39,39-39h176.4c21.5,0,39,17.5,39,39v379.1
	C390.7,439.7,373.2,457.2,351.7,457.2L351.7,457.2z"/>
<path class="st4" d="M390.7,139.5c-0.9,0-1.7,0.7-1.7,1.7v52.8c0,0.9,0.7,1.7,1.7,1.7s1.7-0.7,1.7-1.7v-52.8
	C392.4,140.2,391.6,139.5,390.7,139.5z"/>
<path class="st5" d="M387,39v379.1c0,18.7-14.6,34-33,35.2h0c-0.3,0-0.5,0-0.8,0c-0.5,0-1,0-1.5,0c0,0-1.8-0.1-5.1-0.4
	c-3.4-0.2-8.2-0.6-14.3-1.1c-1.8-0.1-3.7-0.3-5.8-0.5c-4-0.3-8.5-0.7-13.2-1.1c-1.9-0.2-3.9-0.3-5.9-0.5
	c-10.2-0.9-21.7-1.9-33.8-3.1c-2-0.2-4.1-0.4-6.2-0.6c-0.5-0.1-1.1-0.1-1.7-0.2c-8.6-0.8-125.7-23.5-125.7-27.9V39
	c0-19.5,15.8-35.3,35.3-35.3h21.1c3.4,0,6.1,2.6,6.4,6c0,0.2,0,0.4,0.1,0.7c0.6,3.4,3.7,5.7,7.1,5.7h107.1c3.4,0,6.5-2.4,7.1-5.7
	c0-0.2,0.1-0.4,0.1-0.7c0.3-3.4,3-6,6.4-6h21.1C371.2,3.7,387,19.5,387,39z"/>
<path class="st4" d="M135.5,99.9c-0.9,0-1.7,0.7-1.7,1.7v13.2c0,0.9,0.7,1.7,1.7,1.7s1.7-0.7,1.7-1.7v-13.2
	C137.1,100.6,136.4,99.9,135.5,99.9z"/>
<path class="st4" d="M135.5,139.5c-0.9,0-1.7,0.7-1.7,1.7v25.6c0,0.9,0.7,1.7,1.7,1.7s1.7-0.7,1.7-1.7v-25.6
	C137.1,140.2,136.4,139.5,135.5,139.5z"/>
<path class="st4" d="M135.5,175.8c-0.9,0-1.7,0.7-1.7,1.7V203c0,0.9,0.7,1.7,1.7,1.7s1.7-0.7,1.7-1.7v-25.6
	C137.1,176.5,136.4,175.8,135.5,175.8z"/>
<path class="st6" d="M164.2,9.5h31.6c0.2,0,0.3,0.1,0.3,0.3v3.5c0,0.2-0.1,0.3-0.3,0.3h-31.6c-0.2,0-0.3-0.1-0.3-0.3V9.8
	C163.9,9.6,164.1,9.5,164.2,9.5z"/>
<circle class="st6" cx="335.9" cy="10.3" r="3.3"/>
<circle class="st6" cx="344.9" cy="10.3" r="3.3"/>
<circle class="st6" cx="354" cy="10.3" r="3.3"/>
<path class="st6" d="M333.5,95.2h-140c-2.2,0-4-1.8-4-4s1.8-4,4-4h140c2.2,0,4,1.8,4,4S335.7,95.2,333.5,95.2L333.5,95.2z"/>
<path class="st6" d="M357,411.7h-52c-2.2,0-4-1.8-4-4s1.8-4,4-4h52c2.2,0,4,1.8,4,4S359.3,411.7,357,411.7z"/>
<path class="st6" d="M218,411.7h-52c-2.2,0-4-1.8-4-4s1.8-4,4-4h52c2.2,0,4,1.8,4,4S220.3,411.7,218,411.7z"/>
<rect x="166" y="105.9" class="st4" width="195.1" height="1"/>
<path class="st6" d="M333.5,156.2h-140c-2.2,0-4-1.8-4-4s1.8-4,4-4h140c2.2,0,4,1.8,4,4S335.7,156.2,333.5,156.2L333.5,156.2z"/>
<rect x="166" y="166.9" class="st4" width="195.1" height="1"/>
<path class="st6" d="M333.5,217.2h-140c-2.2,0-4-1.8-4-4s1.8-4,4-4h140c2.2,0,4,1.8,4,4S335.7,217.2,333.5,217.2L333.5,217.2z"/>
<rect x="166" y="227.9" class="st4" width="195.1" height="1"/>
<rect x="166" y="279.9" class="st4" width="195.1" height="1"/>
<rect x="166" y="331.9" class="st4" width="195.1" height="1"/>
</svg>
